# xmcd CD database file
#
# Track frame offsets:
#	150
#	22039
#	50940
#	90510
#	108144
#	124980
#	142080
#	163850
#	190740
#	208412
#	224093
#	246209
#	264871
#	285734
#	302343
#
# Disc length: 4594 seconds
#
# Revision: 0
# Processed by: cddbd v1.5.2PL0 Copyright (c) Steve Scherf et al.
# Submitted via: CDex 1.70beta2
#
DISCID=e811f00f
DTITLE=Nils Gessinger - Pass-ion
DYEAR=2011
DGENRE=Jazz
TTITLE0=Toeses
TTITLE1=Bondone
TTITLE2=Catinaccio
TTITLE3=Fugazze
TTITLE4=Fedaia
TTITLE5=Rombo
TTITLE6=Laurin
TTITLE7=Turini
TTITLE8=Rolling down
TTITLE9=Mendola
TTITLE10=Pordoi
TTITLE11=Bonette
TTITLE12=Stelvio
TTITLE13=Abetone
TTITLE14=Bondone Reprise
EXTD=YEAR: 2011
EXTT0=
EXTT1=
EXTT2=
EXTT3=
EXTT4=
EXTT5=
EXTT6=
EXTT7=
EXTT8=
EXTT9=
EXTT10=
EXTT11=
EXTT12=
EXTT13=
EXTT14=
PLAYORDER=
